<?xml version="1.0" encoding="UTF-8"?>
<!-- Generator: Adobe Illustrator 24.3.0, SVG Export Plug-In . SVG Version: 6.00 Build 0)  -->
<svg xmlns="http://www.w3.org/2000/svg" xmlns:xlink="http://www.w3.org/1999/xlink" version="1.1" x="0px" y="0px" viewBox="0 0 226.8 170.1" style="enable-background:new 0 0 226.8 170.1;" xml:space="preserve">
<g id="Bg">
</g>
<g id="Layer_1">
</g>
<g id="Layer_3">
	<g>
		<path style="fill:#410744;" d="M193.3,38.9c-1.6-3.1-4.3-5.5-7.7-6.6l-14.4-4.7c-1.3-0.4-2.7-0.6-4.1-0.6c-0.9,0-1.7,0.1-2.5,0.3    l0,0l-23.1,5.1c-1.8,0.6-3.4,1.5-4.8,2.8c-0.6-0.2-1.2-0.4-1.9-0.6c-1.7-0.4-3.6-0.6-5.5-0.4V23.5L115.5,26c-2,0.3-3.9,1-5.8,1.9    c-2.5,1.2-4.7,2.9-6.6,5c-1.8,2-3.3,4.3-4.3,6.7c-0.9,0-1.8,0.1-2.8,0.3c-2.7,0.5-5.3,1.4-7.6,2.8c-0.6,0.3-1.1,0.7-1.7,1.1    c-0.5-0.2-1-0.3-1.5-0.5c-2.4-0.6-5-0.6-7.8-0.2c-3.8,0.7-7.2,2.2-10.1,4.4c-2.9,2.3-5.2,5.1-6.8,8.3c-1,2.1-1.7,4.3-2.1,6.5    c-0.2,1.5-0.3,3.1-0.3,4.8v8.7c0,1.7,0.1,3.2,0.3,4.7c0.3,2.2,1,4.1,2,5.8c0.1,0.2,0.2,0.4,0.4,0.6c-3.5-2-7.8-2.7-12.6-1.8    c-2.9,0.5-5.7,1.5-8.3,3c-2.6,1.5-4.9,3.4-6.8,5.7c-1.9,2.3-3.5,4.9-4.5,7.7c-1,2.7-1.5,5.5-1.5,8.3v24.1c0,3.7,0.7,6.8,2.1,9.4    c1.3,2.4,3.1,4.4,5.2,5.8c2.2,1.5,4.7,2.3,7.5,2.6c1.9,0.2,3.9,0.1,5.8-0.2l0,0l0.4-0.1c0.1,0,0.2,0,0.2,0c0.1,0,0.1,0,0.1,0    l49.4-8.7c0,0,0.1,0,0.1,0c0.1,0,0.1,0,0.2,0l65.4-11.5c2.5-0.4,5-1.3,7.5-2.6c2.5-1.4,4.9-3.2,6.9-5.3c2.1-2.2,3.8-4.8,5.1-7.7    c1.3-3,2-6.3,2-9.7V82.5c0-2.6-0.4-5-1.2-7.1c1.6-1.5,2.8-3.3,3.5-5.5l0.6-1.9l1.3-3.9l4.9-15.2C195.1,45.6,194.9,42,193.3,38.9z"></path>
		<g>
			<g>
				<path d="M58.4,125.8v2.7c0,1.4-0.3,2.7-0.8,4c-0.5,1.3-1.2,2.5-2.1,3.6c-0.9,1.1-2,2-3.2,2.8c-1.2,0.8-2.5,1.3-3.9,1.5      c-1.2,0.2-2.4,0.3-3.6,0.1c-1.2-0.1-2.3-0.5-3.3-1.1c-1-0.6-1.8-1.6-2.4-2.7c-0.6-1.2-1-2.8-1-4.8v-24.1c0-1.4,0.2-2.8,0.7-4.1      c0.5-1.3,1.2-2.5,2.1-3.6c0.9-1.1,2-2,3.2-2.7c1.3-0.7,2.6-1.2,4.2-1.5c3-0.5,5.4,0,7.2,1.6c0.9,0.8,1.6,1.8,2.1,3      c0.5,1.2,0.8,2.6,0.8,4.1v2.5l-6.3,1.1v-2.1c0-1.2-0.3-2.2-1-3c-0.7-0.8-1.6-1.1-2.8-0.9c-1.6,0.3-2.6,0.9-3.1,2      c-0.5,1.1-0.8,2.3-0.8,3.8v22.4c0,1.3,0.3,2.3,0.8,3.1c0.6,0.8,1.5,1,3,0.8c0.4-0.1,0.9-0.2,1.3-0.4c0.5-0.2,0.9-0.5,1.3-0.9      c0.4-0.4,0.7-0.9,0.9-1.5c0.2-0.6,0.4-1.4,0.4-2.2v-2.2L58.4,125.8z"></path>
				<path d="M60.6,137.9l9.8-45.5l5.2-0.9l9.8,42.1l-6.3,1.1l-1.8-9.1l-8.6,1.5l-1.8,9.7L60.6,137.9z M76.1,119.9l-3.1-15.3l-0.1,0      L69.9,121L76.1,119.9z"></path>
				<path d="M108.8,98.2l-6.3,1.1v-1.4c0-1.4-0.3-2.6-1-3.5c-0.7-0.9-1.8-1.2-3.4-1c-0.9,0.2-1.6,0.4-2.1,0.9      c-0.5,0.4-1,0.9-1.3,1.5c-0.3,0.6-0.6,1.2-0.7,1.9c-0.1,0.7-0.2,1.4-0.2,2.2c0,0.9,0,1.6,0.1,2.1c0.1,0.6,0.2,1,0.5,1.5      c0.2,0.4,0.6,0.7,1.1,1c0.5,0.2,1.1,0.5,1.9,0.6l4.8,1.1c1.4,0.3,2.5,0.7,3.4,1.3c0.9,0.6,1.5,1.3,2,2.1c0.5,0.9,0.8,2,0.9,3.2      c0.2,1.2,0.2,2.6,0.2,4.2c0,1.8-0.2,3.6-0.6,5.2c-0.4,1.6-1,3.1-1.8,4.3c-0.9,1.3-2,2.4-3.4,3.3c-1.4,0.9-3.1,1.5-5.1,1.9      c-1.5,0.3-2.9,0.2-4.2-0.1c-1.3-0.3-2.4-0.8-3.4-1.6c-0.9-0.8-1.7-1.7-2.2-2.9c-0.6-1.2-0.8-2.5-0.8-3.9v-2.3l6.3-1.1v2      c0,1.1,0.3,2.1,1,2.9c0.7,0.8,1.8,1.1,3.4,0.8c1.1-0.2,1.9-0.5,2.5-0.9c0.6-0.4,1.1-0.9,1.4-1.6c0.3-0.6,0.5-1.4,0.6-2.2      s0.1-1.7,0.1-2.7c0-1.1,0-2.1-0.1-2.8c-0.1-0.7-0.2-1.3-0.5-1.7c-0.3-0.4-0.7-0.7-1.1-0.9c-0.5-0.2-1.1-0.4-1.9-0.6l-4.5-1.1      c-2.7-0.6-4.5-1.8-5.4-3.4c-0.9-1.7-1.4-3.9-1.4-6.6c0-1.6,0.2-3.2,0.7-4.8c0.5-1.6,1.1-2.9,2-4.2c0.9-1.2,2-2.3,3.3-3.1      c1.3-0.9,2.9-1.5,4.8-1.8c1.6-0.3,3-0.2,4.3,0.1c1.3,0.3,2.4,0.9,3.4,1.7c1.9,1.6,2.8,3.7,2.8,6.3V98.2z"></path>
				<path d="M113.7,128.6V84.8l6.3-1.1v43.8L113.7,128.6z"></path>
				<path d="M125.8,126.4V82.6l6-1.1l9.5,24.7l0.1,0V79.9l6.3-1.1v43.8l-5.9,1L132.2,99l-0.1,0v26.3L125.8,126.4z"></path>
				<path d="M153,88.2c0-1.8,0.3-3.4,0.9-4.8c0.6-1.5,1.4-2.7,2.5-3.8c1-1,2.1-1.9,3.4-2.6c1.3-0.7,2.5-1.1,3.8-1.3      c1.3-0.2,2.5-0.2,3.8,0c1.3,0.2,2.4,0.7,3.4,1.4c1,0.7,1.8,1.7,2.4,3c0.6,1.2,0.9,2.8,0.9,4.5v23.1c0,1.8-0.3,3.5-0.9,4.9      c-0.6,1.4-1.4,2.6-2.4,3.7c-1,1.1-2.2,2-3.4,2.6c-1.3,0.7-2.5,1.1-3.8,1.3c-1.3,0.2-2.5,0.2-3.8,0c-1.3-0.2-2.4-0.7-3.4-1.4      c-1-0.7-1.8-1.6-2.5-2.8c-0.6-1.2-0.9-2.7-0.9-4.6V88.2z M159.3,110.2c0,1.5,0.4,2.6,1.3,3.1c0.8,0.6,1.8,0.8,3,0.6      c1.1-0.2,2.1-0.7,3-1.6c0.8-0.9,1.3-2.1,1.3-3.6V85.6c0-1.5-0.4-2.6-1.3-3.1c-0.8-0.6-1.8-0.8-3-0.6c-1.1,0.2-2.1,0.7-3,1.6      c-0.8,0.9-1.3,2.1-1.3,3.6V110.2z"></path>
			</g>
			<g>
				<path style="fill:#FFFFFF;" d="M58.4,125.8v2.7c0,1.4-0.3,2.7-0.8,4c-0.5,1.3-1.2,2.5-2.1,3.6c-0.9,1.1-2,2-3.2,2.8      c-1.2,0.8-2.5,1.3-3.9,1.5c-1.2,0.2-2.4,0.3-3.6,0.1c-1.2-0.1-2.3-0.5-3.3-1.1c-1-0.6-1.8-1.6-2.4-2.7c-0.6-1.2-1-2.8-1-4.8      v-24.1c0-1.4,0.2-2.8,0.7-4.1c0.5-1.3,1.2-2.5,2.1-3.6c0.9-1.1,2-2,3.2-2.7c1.3-0.7,2.6-1.2,4.2-1.5c3-0.5,5.4,0,7.2,1.6      c0.9,0.8,1.6,1.8,2.1,3c0.5,1.2,0.8,2.6,0.8,4.1v2.5l-6.3,1.1v-2.1c0-1.2-0.3-2.2-1-3c-0.7-0.8-1.6-1.1-2.8-0.9      c-1.6,0.3-2.6,0.9-3.1,2c-0.5,1.1-0.8,2.3-0.8,3.8v22.4c0,1.3,0.3,2.3,0.8,3.1c0.6,0.8,1.5,1,3,0.8c0.4-0.1,0.9-0.2,1.3-0.4      c0.5-0.2,0.9-0.5,1.3-0.9c0.4-0.4,0.7-0.9,0.9-1.5c0.2-0.6,0.4-1.4,0.4-2.2v-2.2L58.4,125.8z"></path>
				<path style="fill:#FFFFFF;" d="M60.6,137.9l9.8-45.5l5.2-0.9l9.8,42.1l-6.3,1.1l-1.8-9.1l-8.6,1.5l-1.8,9.7L60.6,137.9z       M76.1,119.9l-3.1-15.3l-0.1,0L69.9,121L76.1,119.9z"></path>
				<path style="fill:#FFFFFF;" d="M108.8,98.2l-6.3,1.1v-1.4c0-1.4-0.3-2.6-1-3.5c-0.7-0.9-1.8-1.2-3.4-1c-0.9,0.2-1.6,0.4-2.1,0.9      c-0.5,0.4-1,0.9-1.3,1.5c-0.3,0.6-0.6,1.2-0.7,1.9c-0.1,0.7-0.2,1.4-0.2,2.2c0,0.9,0,1.6,0.1,2.1c0.1,0.6,0.2,1,0.5,1.5      c0.2,0.4,0.6,0.7,1.1,1c0.5,0.2,1.1,0.5,1.9,0.6l4.8,1.1c1.4,0.3,2.5,0.7,3.4,1.3c0.9,0.6,1.5,1.3,2,2.1c0.5,0.9,0.8,2,0.9,3.2      c0.2,1.2,0.2,2.6,0.2,4.2c0,1.8-0.2,3.6-0.6,5.2c-0.4,1.6-1,3.1-1.8,4.3c-0.9,1.3-2,2.4-3.4,3.3c-1.4,0.9-3.1,1.5-5.1,1.9      c-1.5,0.3-2.9,0.2-4.2-0.1c-1.3-0.3-2.4-0.8-3.4-1.6c-0.9-0.8-1.7-1.7-2.2-2.9c-0.6-1.2-0.8-2.5-0.8-3.9v-2.3l6.3-1.1v2      c0,1.1,0.3,2.1,1,2.9c0.7,0.8,1.8,1.1,3.4,0.8c1.1-0.2,1.9-0.5,2.5-0.9c0.6-0.4,1.1-0.9,1.4-1.6c0.3-0.6,0.5-1.4,0.6-2.2      s0.1-1.7,0.1-2.7c0-1.1,0-2.1-0.1-2.8c-0.1-0.7-0.2-1.3-0.5-1.7c-0.3-0.4-0.7-0.7-1.1-0.9c-0.5-0.2-1.1-0.4-1.9-0.6l-4.5-1.1      c-2.7-0.6-4.5-1.8-5.4-3.4c-0.9-1.7-1.4-3.9-1.4-6.6c0-1.6,0.2-3.2,0.7-4.8c0.5-1.6,1.1-2.9,2-4.2c0.9-1.2,2-2.3,3.3-3.1      c1.3-0.9,2.9-1.5,4.8-1.8c1.6-0.3,3-0.2,4.3,0.1c1.3,0.3,2.4,0.9,3.4,1.7c1.9,1.6,2.8,3.7,2.8,6.3V98.2z"></path>
				<path style="fill:#FFFFFF;" d="M113.7,128.6V84.8l6.3-1.1v43.8L113.7,128.6z"></path>
				<path style="fill:#FFFFFF;" d="M125.8,126.4V82.6l6-1.1l9.5,24.7l0.1,0V79.9l6.3-1.1v43.8l-5.9,1L132.2,99l-0.1,0v26.3      L125.8,126.4z"></path>
				<path style="fill:#FFFFFF;" d="M153,88.2c0-1.8,0.3-3.4,0.9-4.8c0.6-1.5,1.4-2.7,2.5-3.8c1-1,2.1-1.9,3.4-2.6      c1.3-0.7,2.5-1.1,3.8-1.3c1.3-0.2,2.5-0.2,3.8,0c1.3,0.2,2.4,0.7,3.4,1.4c1,0.7,1.8,1.7,2.4,3c0.6,1.2,0.9,2.8,0.9,4.5v23.1      c0,1.8-0.3,3.5-0.9,4.9c-0.6,1.4-1.4,2.6-2.4,3.7c-1,1.1-2.2,2-3.4,2.6c-1.3,0.7-2.5,1.1-3.8,1.3c-1.3,0.2-2.5,0.2-3.8,0      c-1.3-0.2-2.4-0.7-3.4-1.4c-1-0.7-1.8-1.6-2.5-2.8c-0.6-1.2-0.9-2.7-0.9-4.6V88.2z M159.3,110.2c0,1.5,0.4,2.6,1.3,3.1      c0.8,0.6,1.8,0.8,3,0.6c1.1-0.2,2.1-0.7,3-1.6c0.8-0.9,1.3-2.1,1.3-3.6V85.6c0-1.5-0.4-2.6-1.3-3.1c-0.8-0.6-1.8-0.8-3-0.6      c-1.1,0.2-2.1,0.7-3,1.6c-0.8,0.9-1.3,2.1-1.3,3.6V110.2z"></path>
			</g>
		</g>
		<g>
			<g>
				<path d="M74.5,73.9c0,0.8,0.2,1.4,0.7,1.8c0.5,0.4,1.1,0.5,1.9,0.3c1-0.2,1.7-0.6,2-1.2c0.3-0.7,0.5-1.3,0.6-1.9l5.3-0.9      c0,2.3-0.7,4.4-2.1,6c-0.7,0.9-1.5,1.6-2.5,2.2c-1,0.6-2.1,1-3.3,1.2c-1.7,0.3-3.1,0.2-4.3-0.3c-1.2-0.5-2.1-1.3-2.7-2.3      c-0.4-0.6-0.6-1.4-0.8-2.3c-0.1-0.9-0.2-1.9-0.2-2.9v-8.7c0-1.1,0.1-2.1,0.2-3c0.1-0.9,0.4-1.8,0.8-2.5c0.6-1.3,1.5-2.3,2.7-3.3      c1.2-0.9,2.6-1.5,4.3-1.8c1.2-0.2,2.3-0.2,3.3,0c1,0.2,1.8,0.7,2.5,1.3c1.4,1.3,2.1,3.2,2.1,5.8l-5.3,0.9c0-1.1-0.2-1.8-0.7-2.3      c-0.5-0.4-1.1-0.6-1.9-0.4c-0.8,0.1-1.4,0.5-1.9,1.1c-0.5,0.6-0.7,1.4-0.7,2.4V73.9z"></path>
				<path d="M98.4,77.4v-2.7l-0.1,0c-0.7,1.1-1.4,2-2.1,2.6c-0.7,0.6-1.7,1.1-3,1.3c-0.6,0.1-1.3,0.1-1.9,0      c-0.6-0.1-1.3-0.3-1.9-0.7c-0.6-0.4-1.1-1-1.4-1.9c-0.4-0.9-0.5-2-0.5-3.5c0-1.5,0.1-2.8,0.4-4c0.2-1.2,0.7-2.2,1.4-3.1      c0.6-0.8,1.5-1.5,2.6-2.1c1.1-0.6,2.5-1,4.1-1.3c0.2,0,0.4-0.1,0.6-0.1c0.2,0,0.4-0.1,0.6,0c0.2,0,0.4,0,0.6-0.1      c0.2,0,0.5-0.1,0.8-0.1V59c0-0.9-0.2-1.6-0.6-2.2c-0.4-0.5-1.1-0.7-2.1-0.5c-0.7,0.1-1.3,0.5-1.9,1c-0.6,0.6-1,1.3-1.1,2.2      l-5.2,0.9c0.1-2.4,0.9-4.5,2.4-6.2c0.7-0.8,1.5-1.5,2.5-2.1c1-0.6,2.1-1,3.3-1.2c1.1-0.2,2.2-0.2,3.1,0c1,0.2,1.8,0.5,2.6,1.1      c0.7,0.6,1.3,1.3,1.7,2.3c0.4,1,0.6,2.2,0.6,3.6v18.5L98.4,77.4z M98.4,66c-0.6,0-1.1,0-1.5,0.1c-1.2,0.2-2.1,0.6-3,1.3      c-0.8,0.7-1.2,1.7-1.2,3.2c0,1,0.2,1.8,0.7,2.3c0.5,0.5,1.2,0.7,2,0.6c0.9-0.2,1.6-0.6,2.1-1.3c0.5-0.7,0.8-1.6,0.8-2.6V66z"></path>
				<path d="M108.3,75.6V53.3l-2.6,0.5v-4.2l2.6-0.5v-3.6c0-1.3,0.2-2.4,0.6-3.4c0.4-1,0.9-1.8,1.6-2.5c0.6-0.7,1.4-1.3,2.2-1.6      c0.8-0.4,1.7-0.7,2.5-0.8l2.5-0.4v5l-2.4,0.4c-1,0.2-1.6,0.9-1.6,2.1v3.9l4-0.7v4.2l-4,0.7v22.4L108.3,75.6z"></path>
				<path d="M134.7,59.7l-10.6,1.9v3.6c0,0.8,0.2,1.4,0.7,1.8c0.5,0.4,1.1,0.5,1.9,0.3c1-0.2,1.7-0.6,2-1.2c0.3-0.7,0.5-1.3,0.6-1.9      l5.3-0.9c0,2.3-0.7,4.4-2.1,6c-0.7,0.9-1.5,1.6-2.5,2.2c-1,0.6-2.1,1-3.3,1.2c-1.7,0.3-3.1,0.2-4.3-0.3      c-1.2-0.5-2.1-1.3-2.7-2.3c-0.4-0.6-0.6-1.4-0.8-2.3c-0.1-0.9-0.2-1.9-0.2-2.9v-8.7c0-1.1,0.1-2.1,0.2-3      c0.1-0.9,0.4-1.8,0.8-2.5c0.6-1.3,1.5-2.3,2.7-3.3c1.2-0.9,2.6-1.5,4.3-1.8c1.2-0.2,2.3-0.2,3.3,0c1,0.2,1.8,0.7,2.5,1.3      c1.4,1.3,2.1,3.2,2.1,5.5V59.7z M124.1,57.4l5.2-0.9v-3c0-1-0.2-1.7-0.7-2.2c-0.5-0.4-1.1-0.6-1.9-0.4c-0.8,0.1-1.4,0.5-1.9,1.1      c-0.5,0.6-0.7,1.4-0.7,2.4V57.4z"></path>
			</g>
			<g>
				<path style="fill:#DF794E;" d="M74.5,73.9c0,0.8,0.2,1.4,0.7,1.8c0.5,0.4,1.1,0.5,1.9,0.3c1-0.2,1.7-0.6,2-1.2      c0.3-0.7,0.5-1.3,0.6-1.9l5.3-0.9c0,2.3-0.7,4.4-2.1,6c-0.7,0.9-1.5,1.6-2.5,2.2c-1,0.6-2.1,1-3.3,1.2c-1.7,0.3-3.1,0.2-4.3-0.3      c-1.2-0.5-2.1-1.3-2.7-2.3c-0.4-0.6-0.6-1.4-0.8-2.3c-0.1-0.9-0.2-1.9-0.2-2.9v-8.7c0-1.1,0.1-2.1,0.2-3      c0.1-0.9,0.4-1.8,0.8-2.5c0.6-1.3,1.5-2.3,2.7-3.3c1.2-0.9,2.6-1.5,4.3-1.8c1.2-0.2,2.3-0.2,3.3,0c1,0.2,1.8,0.7,2.5,1.3      c1.4,1.3,2.1,3.2,2.1,5.8l-5.3,0.9c0-1.1-0.2-1.8-0.7-2.3c-0.5-0.4-1.1-0.6-1.9-0.4c-0.8,0.1-1.4,0.5-1.9,1.1      c-0.5,0.6-0.7,1.4-0.7,2.4V73.9z"></path>
				<path style="fill:#DF794E;" d="M98.4,77.4v-2.7l-0.1,0c-0.7,1.1-1.4,2-2.1,2.6c-0.7,0.6-1.7,1.1-3,1.3c-0.6,0.1-1.3,0.1-1.9,0      c-0.6-0.1-1.3-0.3-1.9-0.7c-0.6-0.4-1.1-1-1.4-1.9c-0.4-0.9-0.5-2-0.5-3.5c0-1.5,0.1-2.8,0.4-4c0.2-1.2,0.7-2.2,1.4-3.1      c0.6-0.8,1.5-1.5,2.6-2.1c1.1-0.6,2.5-1,4.1-1.3c0.2,0,0.4-0.1,0.6-0.1c0.2,0,0.4-0.1,0.6,0c0.2,0,0.4,0,0.6-0.1      c0.2,0,0.5-0.1,0.8-0.1V59c0-0.9-0.2-1.6-0.6-2.2c-0.4-0.5-1.1-0.7-2.1-0.5c-0.7,0.1-1.3,0.5-1.9,1c-0.6,0.6-1,1.3-1.1,2.2      l-5.2,0.9c0.1-2.4,0.9-4.5,2.4-6.2c0.7-0.8,1.5-1.5,2.5-2.1c1-0.6,2.1-1,3.3-1.2c1.1-0.2,2.2-0.2,3.1,0c1,0.2,1.8,0.5,2.6,1.1      c0.7,0.6,1.3,1.3,1.7,2.3c0.4,1,0.6,2.2,0.6,3.6v18.5L98.4,77.4z M98.4,66c-0.6,0-1.1,0-1.5,0.1c-1.2,0.2-2.1,0.6-3,1.3      c-0.8,0.7-1.2,1.7-1.2,3.2c0,1,0.2,1.8,0.7,2.3c0.5,0.5,1.2,0.7,2,0.6c0.9-0.2,1.6-0.6,2.1-1.3c0.5-0.7,0.8-1.6,0.8-2.6V66z"></path>
				<path style="fill:#DF794E;" d="M108.3,75.6V53.3l-2.6,0.5v-4.2l2.6-0.5v-3.6c0-1.3,0.2-2.4,0.6-3.4c0.4-1,0.9-1.8,1.6-2.5      c0.6-0.7,1.4-1.3,2.2-1.6c0.8-0.4,1.7-0.7,2.5-0.8l2.5-0.4v5l-2.4,0.4c-1,0.2-1.6,0.9-1.6,2.1v3.9l4-0.7v4.2l-4,0.7v22.4      L108.3,75.6z"></path>
				<path style="fill:#DF794E;" d="M134.7,59.7l-10.6,1.9v3.6c0,0.8,0.2,1.4,0.7,1.8c0.5,0.4,1.1,0.5,1.9,0.3c1-0.2,1.7-0.6,2-1.2      c0.3-0.7,0.5-1.3,0.6-1.9l5.3-0.9c0,2.3-0.7,4.4-2.1,6c-0.7,0.9-1.5,1.6-2.5,2.2c-1,0.6-2.1,1-3.3,1.2c-1.7,0.3-3.1,0.2-4.3-0.3      c-1.2-0.5-2.1-1.3-2.7-2.3c-0.4-0.6-0.6-1.4-0.8-2.3c-0.1-0.9-0.2-1.9-0.2-2.9v-8.7c0-1.1,0.1-2.1,0.2-3      c0.1-0.9,0.4-1.8,0.8-2.5c0.6-1.3,1.5-2.3,2.7-3.3c1.2-0.9,2.6-1.5,4.3-1.8c1.2-0.2,2.3-0.2,3.3,0c1,0.2,1.8,0.7,2.5,1.3      c1.4,1.3,2.1,3.2,2.1,5.5V59.7z M124.1,57.4l5.2-0.9v-3c0-1-0.2-1.7-0.7-2.2c-0.5-0.4-1.1-0.6-1.9-0.4c-0.8,0.1-1.4,0.5-1.9,1.1      c-0.5,0.6-0.7,1.4-0.7,2.4V57.4z"></path>
			</g>
		</g>
		<g>
			<path style="fill:#FFFFFF;" d="M151.4,62.6V41.3c0-0.2,0-0.5,0.1-0.7l-6.1,2c-1.4,0.5-2.2,2-1.7,3.4l6.6,20.2     c0.4,1.1,1.4,1.9,2.6,1.9c0.3,0,0.6,0,0.8-0.1l1.7-0.6C153.1,67,151.4,64.9,151.4,62.6z"></path>
			<path style="fill:#FFFFFF;" d="M155.8,59.4l6.6-20.2c0.1-0.2,0.1-0.5,0.2-0.6h-6.3c-1.5,0-2.8,1.2-2.8,2.7v21.3     c0,1.5,1.3,2.8,2.8,2.8h2.2C156.2,64.3,155,61.8,155.8,59.4z"></path>
			<path style="fill:#FFFFFF;" d="M181.7,42.6l-13.9-4.5c-0.3-0.1-0.6-0.1-0.8-0.1c-1.1,0-2.2,0.7-2.6,1.9l-6.6,20.2     c-0.5,1.4,0.3,2.9,1.7,3.4l13.9,4.5c0.3,0.1,0.6,0.1,0.8,0.1c1.1,0,2.2-0.7,2.6-1.9l6.6-20.2C183.9,44.6,183.1,43.1,181.7,42.6z      M172.9,58.7c-1.3-0.1-2.2-0.9-2.5-1.8c-0.3,1-0.7,2.2-0.6,3l-2.4-1c0.6-0.5,1.2-1.6,1.7-2.5c-0.9,0.4-2.1,0.3-3.1-0.5     c-1.7-1.5-2.1-6.6,7.5-8.4C179,55.4,175.2,58.9,172.9,58.7z"></path>
		</g>
	</g>
</g>
<g id="Layer_4">
</g>
</svg>
