<?xml version="1.0" encoding="UTF-8"?>
<!-- Generator: Adobe Illustrator 22.1.0, SVG Export Plug-In . SVG Version: 6.00 Build 0)  -->
<svg xmlns="http://www.w3.org/2000/svg" xmlns:xlink="http://www.w3.org/1999/xlink" version="1.1" id="Layer_1" x="0px" y="0px" viewBox="0 0 190 55" style="enable-background:new 0 0 190 55;" xml:space="preserve">
<style type="text/css">
	.st0{fill:#E18D25;}
	.st1{fill:url(#SVGID_1_);}
	.st2{fill:url(#SVGID_2_);}
	.st3{fill:url(#SVGID_3_);}
	.st4{fill:url(#SVGID_4_);}
	.st5{fill:url(#SVGID_5_);}
	.st6{fill:url(#SVGID_6_);}
	.st7{fill:url(#SVGID_7_);}
	.st8{fill:url(#SVGID_8_);}
	.st9{fill:url(#SVGID_9_);}
	.st10{fill:url(#SVGID_10_);}
</style>
<g>
	<g>
		<path class="st0" d="M148.7,12.4c0-0.9,0-2.3,0-4.1c-1.8,0-4.6,0-8.3,0c0,5.5,0,13.8,0,24.8c1.9,0,4.6,0,8.3,0c0-1.9,0-4.6,0-8.3    c-0.9,0-2.3,0-4.1,0c0-1.8,0-4.6,0-8.2c2.8,0,6.9,0,12.4,0c0,1.8,0,4.6,0,8.2c0,2.8,0,6.9,0,12.4c0,1.2-0.4,2.1-1.2,2.9    c-0.8,0.8-1.8,1.2-2.9,1.2c-3.7,0-9.2,0-16.5,0c-1.2,0-2.1-0.4-2.9-1.2c-0.8-0.8-1.2-1.8-1.2-2.9c0-2.8,0-6.9,0-12.4    c0-2.3,0-5.1,0-8.5c0-3.5,0-7.5,0-12.1c0-1.1,0.4-2.1,1.2-2.9c0.8-0.8,1.8-1.2,2.9-1.2c3.7,0,9.2,0,16.5,0c1.1,0,2.1,0.4,2.9,1.2    C156.6,2,157,3,157,4.1c0,1.9,0,4.6,0,8.3C155.1,12.4,152.4,12.4,148.7,12.4z"></path>
		<path class="st0" d="M190,4.1c0,7.4,0,18.4,0,33c0,1.2-0.4,2.1-1.2,2.9c-0.8,0.8-1.8,1.2-2.9,1.2c-3.7,0-9.2,0-16.5,0    c-1.2,0-2.1-0.4-2.9-1.2c-0.8-0.8-1.2-1.8-1.2-2.9c0-2.8,0-6.9,0-12.4c0-2.3,0-5.1,0-8.5c0-3.5,0-7.5,0-12.1    c0-1.1,0.4-2.1,1.2-2.9c0.8-0.8,1.8-1.2,2.9-1.2c3.7,0,9.2,0,16.5,0c1.1,0,2.1,0.4,2.9,1.2C189.6,2,190,3,190,4.1z M173.5,33    c1.9,0,4.6,0,8.3,0c0-0.4,0-0.9,0-1.6c0-5.2,0-12.9,0-23.2c-1.8,0-4.6,0-8.3,0c0,2.8,0,6.9,0,12.4C173.5,23.4,173.5,27.5,173.5,33    z"></path>
	</g>
	<g>
		<linearGradient id="SVGID_1_" gradientUnits="userSpaceOnUse" x1="111.5248" y1="41.5042" x2="111.5248" y2="-0.9935">
			<stop offset="0" style="stop-color:#CBD0D5"></stop>
			<stop offset="0.2072" style="stop-color:#B9BFC4"></stop>
			<stop offset="0.4326" style="stop-color:#A9B1B5"></stop>
			<stop offset="0.5206" style="stop-color:#B6BEC2"></stop>
			<stop offset="0.8386" style="stop-color:#E2E9ED"></stop>
			<stop offset="1" style="stop-color:#F3FAFD"></stop>
		</linearGradient>
		<path class="st1" d="M123.9,4.1c0,8.3,0,20.7,0,37.2c-1.8,0-4.6,0-8.2,0c0-7.4,0-18.4,0-33c-1.8,0-4.6,0-8.3,0c0,7.4,0,18.4,0,33    c-1.8,0-4.6,0-8.2,0c0-4.6,0-10.3,0-17.2c0-6.9,0-14.9,0-24.1c1.8,0,4.6,0,8.2,0c2.8,0,6.9,0,12.4,0c1.1,0,2.1,0.4,2.9,1.2    C123.5,2,123.9,3,123.9,4.1z"></path>
		<linearGradient id="SVGID_2_" gradientUnits="userSpaceOnUse" x1="12.3796" y1="41.5042" x2="12.3796" y2="-0.9935">
			<stop offset="0" style="stop-color:#CBD0D5"></stop>
			<stop offset="0.2072" style="stop-color:#B9BFC4"></stop>
			<stop offset="0.4326" style="stop-color:#A9B1B5"></stop>
			<stop offset="0.5206" style="stop-color:#B6BEC2"></stop>
			<stop offset="0.8386" style="stop-color:#E2E9ED"></stop>
			<stop offset="1" style="stop-color:#F3FAFD"></stop>
		</linearGradient>
		<path class="st2" d="M24.8,16.5c0-5.5,0-9.7,0-12.4c0-1.1-0.4-2.1-1.2-2.9C22.8,0.4,21.8,0,20.7,0C15.1,0,11,0,8.2,0    C4.6,0,1.8,0,0,0c0,3.7,0,6.4,0,8.2c0,1.8,0,3.4,0,4.8c0,1.4,0,2.5,0,3.5c0,3.7,0,6.4,0,8.2c0,3.7,0,6.4,0,8.3c0,3.7,0,6.4,0,8.2    c3.7,0,6.4,0,8.2,0c5.5,0,9.7,0,12.4,0c1.1,0,2.1-0.4,2.9-1.2c0.8-0.8,1.2-1.8,1.2-2.9c0-5.5,0-9.6,0-12.4c0-1.2-0.4-2.1-1.2-2.9    c-0.8-0.8-1.8-1.2-2.9-1.2c1.1,0,2.1-0.4,2.9-1.2C24.4,18.6,24.8,17.6,24.8,16.5z M16.5,15.1c0,0.6,0,1.1,0,1.5    c-1.5,0-2.9,0-4.1,0v8.2c1.7,0,3.1,0,4.1,0c0,3,0,5.3,0,6.8c0,0.6,0,1.1,0,1.5c-3.7,0-6.4,0-8.3,0c0-2.8,0-6.9,0-6.9V15.1    c0,0,0-5.3,0-6.9c3.7,0,6.5,0,8.3,0C16.5,11.3,16.5,13.5,16.5,15.1z"></path>
		<linearGradient id="SVGID_3_" gradientUnits="userSpaceOnUse" x1="45.4279" y1="41.5042" x2="45.4279" y2="-0.9935">
			<stop offset="0" style="stop-color:#CBD0D5"></stop>
			<stop offset="0.2072" style="stop-color:#B9BFC4"></stop>
			<stop offset="0.4326" style="stop-color:#A9B1B5"></stop>
			<stop offset="0.5206" style="stop-color:#B6BEC2"></stop>
			<stop offset="0.8386" style="stop-color:#E2E9ED"></stop>
			<stop offset="1" style="stop-color:#F3FAFD"></stop>
		</linearGradient>
		<path class="st3" d="M57.8,16.5c0-5.5,0-9.7,0-12.4c0-1.1-0.4-2.1-1.2-2.9C55.8,0.4,54.8,0,53.7,0C48.2,0,44,0,41.3,0    c-3.7,0-6.4,0-8.2,0c0,3.7,0,6.9,0,9.6c0,2.8,0,5.1,0,6.9c0,3.7,0,6.4,0,8.2c0,7.4,0,12.9,0,16.5c3.7,0,6.4,0,8.2,0    c0-6.5,0-11.5,0-15.1V15.1c0-3,0-5.3,0-6.9c3.7,0,6.5,0,8.3,0c0,3,0,5.3,0,6.8c0,0.6,0,1.1,0,1.5c-1.5,0-2.9,0-4.1,0v8.2    c1.7,0,3.1,0,4.1,0c0,7.4,0,12.9,0,16.5c3.7,0,6.4,0,8.2,0c0-7.4,0-12.9,0-16.5c0-1.2-0.4-2.1-1.2-2.9c-0.8-0.8-1.8-1.2-2.9-1.2    c1.1,0,2.1-0.4,2.9-1.2C57.4,18.6,57.8,17.6,57.8,16.5z"></path>
		<linearGradient id="SVGID_4_" gradientUnits="userSpaceOnUse" x1="78.4764" y1="41.5042" x2="78.4764" y2="-0.9935">
			<stop offset="0" style="stop-color:#CBD0D5"></stop>
			<stop offset="0.2072" style="stop-color:#B9BFC4"></stop>
			<stop offset="0.4326" style="stop-color:#A9B1B5"></stop>
			<stop offset="0.5206" style="stop-color:#B6BEC2"></stop>
			<stop offset="0.8386" style="stop-color:#E2E9ED"></stop>
			<stop offset="1" style="stop-color:#F3FAFD"></stop>
		</linearGradient>
		<path class="st4" d="M89.7,1.2C88.9,0.4,87.9,0,86.8,0c-7.4,0-12.9,0-16.5,0c-1.2,0-2.1,0.4-2.9,1.2C66.5,2,66.1,3,66.1,4.1    c0,5.2,0,9.7,0,13.6c0,3.8,0,7.1,0,9.6c0,6.2,0,10.9,0,14c3.7,0,6.4,0,8.2,0c0-6.5,0-15.1,0-15.1V15.1c0,0,0-5.3,0-6.9    c3.7,0,6.5,0,8.3,0c0,3,0,5.3,0,6.8c0,0.6,0,1.1,0,1.5c-1.5,0-2.9,0-4.1,0v8.2c1.7,0,3.1,0,4.1,0c0,7.4,0,12.9,0,16.5    c3.7,0,6.4,0,8.2,0c0-16.5,0-28.9,0-37.2C90.9,3,90.5,2,89.7,1.2z"></path>
	</g>
</g>
<g>
	<linearGradient id="SVGID_5_" gradientUnits="userSpaceOnUse" x1="134.6586" y1="54.9962" x2="134.6586" y2="48.6839">
		<stop offset="0" style="stop-color:#CBD0D5"></stop>
		<stop offset="0.2072" style="stop-color:#B9BFC4"></stop>
		<stop offset="0.4326" style="stop-color:#A9B1B5"></stop>
		<stop offset="0.5206" style="stop-color:#B6BEC2"></stop>
		<stop offset="0.8386" style="stop-color:#E2E9ED"></stop>
		<stop offset="1" style="stop-color:#F3FAFD"></stop>
	</linearGradient>
	<path class="st5" d="M136.1,52.6l1.2,0.4c-0.2,0.7-0.5,1.2-0.9,1.5c-0.4,0.3-1,0.5-1.6,0.5c-0.8,0-1.5-0.3-2-0.8   c-0.5-0.6-0.8-1.3-0.8-2.3c0-1,0.3-1.8,0.8-2.4c0.5-0.6,1.2-0.8,2.1-0.8c0.7,0,1.4,0.2,1.8,0.7c0.3,0.3,0.5,0.6,0.6,1.1l-1.2,0.3   c-0.1-0.3-0.2-0.6-0.5-0.7c-0.2-0.2-0.5-0.3-0.8-0.3c-0.5,0-0.8,0.2-1.1,0.5c-0.3,0.3-0.4,0.9-0.4,1.6c0,0.8,0.1,1.3,0.4,1.6   c0.3,0.3,0.6,0.5,1.1,0.5c0.3,0,0.6-0.1,0.8-0.3C135.9,53.4,136,53.1,136.1,52.6z"></path>
	<linearGradient id="SVGID_6_" gradientUnits="userSpaceOnUse" x1="145.9329" y1="54.8919" x2="145.9329" y2="48.7879">
		<stop offset="0" style="stop-color:#CBD0D5"></stop>
		<stop offset="0.2072" style="stop-color:#B9BFC4"></stop>
		<stop offset="0.4326" style="stop-color:#A9B1B5"></stop>
		<stop offset="0.5206" style="stop-color:#B6BEC2"></stop>
		<stop offset="0.8386" style="stop-color:#E2E9ED"></stop>
		<stop offset="1" style="stop-color:#F3FAFD"></stop>
	</linearGradient>
	<path class="st6" d="M149,54.9h-1.3l-0.5-1.4h-2.4l-0.5,1.4h-1.3l2.4-6.1h1.3L149,54.9z M146.7,52.5l-0.8-2.3l-0.8,2.3H146.7z"></path>
	<linearGradient id="SVGID_7_" gradientUnits="userSpaceOnUse" x1="156.935" y1="55" x2="156.935" y2="48.6839">
		<stop offset="0" style="stop-color:#CBD0D5"></stop>
		<stop offset="0.2072" style="stop-color:#B9BFC4"></stop>
		<stop offset="0.4326" style="stop-color:#A9B1B5"></stop>
		<stop offset="0.5206" style="stop-color:#B6BEC2"></stop>
		<stop offset="0.8386" style="stop-color:#E2E9ED"></stop>
		<stop offset="1" style="stop-color:#F3FAFD"></stop>
	</linearGradient>
	<path class="st7" d="M154.5,52.9l1.2-0.1c0.1,0.4,0.2,0.7,0.4,0.9c0.2,0.2,0.5,0.3,0.9,0.3c0.4,0,0.7-0.1,0.9-0.3   c0.2-0.2,0.3-0.4,0.3-0.6c0-0.1,0-0.3-0.1-0.4c-0.1-0.1-0.2-0.2-0.4-0.3c-0.1-0.1-0.5-0.1-1-0.3c-0.7-0.2-1.1-0.4-1.4-0.6   c-0.4-0.3-0.6-0.7-0.6-1.2c0-0.3,0.1-0.6,0.3-0.9c0.2-0.3,0.4-0.5,0.8-0.6c0.3-0.1,0.7-0.2,1.2-0.2c0.8,0,1.3,0.2,1.7,0.5   c0.4,0.3,0.6,0.8,0.6,1.3l-1.2,0.1c-0.1-0.3-0.2-0.5-0.3-0.7c-0.2-0.1-0.4-0.2-0.8-0.2c-0.4,0-0.6,0.1-0.8,0.2   c-0.1,0.1-0.2,0.2-0.2,0.4c0,0.1,0.1,0.3,0.2,0.4c0.2,0.1,0.5,0.3,1.1,0.4c0.6,0.1,1,0.3,1.3,0.4c0.3,0.2,0.5,0.4,0.7,0.6   c0.2,0.3,0.2,0.6,0.2,1c0,0.3-0.1,0.7-0.3,1c-0.2,0.3-0.5,0.5-0.8,0.7c-0.4,0.1-0.8,0.2-1.3,0.2c-0.8,0-1.4-0.2-1.8-0.5   C154.8,54.1,154.5,53.6,154.5,52.9z"></path>
	<linearGradient id="SVGID_8_" gradientUnits="userSpaceOnUse" x1="166.148" y1="54.8919" x2="166.148" y2="48.7879">
		<stop offset="0" style="stop-color:#CBD0D5"></stop>
		<stop offset="0.2072" style="stop-color:#B9BFC4"></stop>
		<stop offset="0.4326" style="stop-color:#A9B1B5"></stop>
		<stop offset="0.5206" style="stop-color:#B6BEC2"></stop>
		<stop offset="0.8386" style="stop-color:#E2E9ED"></stop>
		<stop offset="1" style="stop-color:#F3FAFD"></stop>
	</linearGradient>
	<path class="st8" d="M165.5,54.9v-6.1h1.2v6.1H165.5z"></path>
	<linearGradient id="SVGID_9_" gradientUnits="userSpaceOnUse" x1="175.4886" y1="54.8919" x2="175.4886" y2="48.7879">
		<stop offset="0" style="stop-color:#CBD0D5"></stop>
		<stop offset="0.2072" style="stop-color:#B9BFC4"></stop>
		<stop offset="0.4326" style="stop-color:#A9B1B5"></stop>
		<stop offset="0.5206" style="stop-color:#B6BEC2"></stop>
		<stop offset="0.8386" style="stop-color:#E2E9ED"></stop>
		<stop offset="1" style="stop-color:#F3FAFD"></stop>
	</linearGradient>
	<path class="st9" d="M173.1,54.9v-6.1h1.2l2.5,4.1v-4.1h1.1v6.1h-1.2l-2.5-4v4H173.1z"></path>
	<linearGradient id="SVGID_10_" gradientUnits="userSpaceOnUse" x1="187.0397" y1="54.9962" x2="187.0397" y2="48.6839">
		<stop offset="0" style="stop-color:#CBD0D5"></stop>
		<stop offset="0.2072" style="stop-color:#B9BFC4"></stop>
		<stop offset="0.4326" style="stop-color:#A9B1B5"></stop>
		<stop offset="0.5206" style="stop-color:#B6BEC2"></stop>
		<stop offset="0.8386" style="stop-color:#E2E9ED"></stop>
		<stop offset="1" style="stop-color:#F3FAFD"></stop>
	</linearGradient>
	<path class="st10" d="M184.1,51.9c0-0.6,0.1-1.1,0.3-1.6c0.1-0.3,0.3-0.6,0.6-0.8c0.2-0.2,0.5-0.4,0.8-0.5c0.4-0.2,0.8-0.2,1.3-0.2   c0.9,0,1.6,0.3,2.2,0.8c0.5,0.6,0.8,1.3,0.8,2.3c0,1-0.3,1.8-0.8,2.3c-0.5,0.6-1.3,0.8-2.1,0.8c-0.9,0-1.6-0.3-2.2-0.8   C184.3,53.6,184.1,52.8,184.1,51.9z M185.3,51.8c0,0.7,0.2,1.2,0.5,1.6c0.3,0.4,0.7,0.5,1.2,0.5c0.5,0,0.9-0.2,1.2-0.5   c0.3-0.4,0.5-0.9,0.5-1.6c0-0.7-0.2-1.2-0.5-1.6c-0.3-0.3-0.7-0.5-1.2-0.5c-0.5,0-0.9,0.2-1.2,0.5   C185.5,50.6,185.3,51.1,185.3,51.8z"></path>
</g>
</svg>
